<!DOCTYPE svg PUBLIC "-//W3C//DTD SVG 1.1//EN" "http://www.w3.org/Graphics/SVG/1.1/DTD/svg11.dtd">
<!-- Uploaded to: SVG Repo, www.svgrepo.com, Transformed by: SVG Repo Mixer Tools -->
<svg fill="#000000" height="800px" width="800px" version="1.1" id="Capa_1" xmlns="http://www.w3.org/2000/svg" xmlns:xlink="http://www.w3.org/1999/xlink" viewBox="-20.26 -20.26 98.40 98.40" xml:space="preserve" stroke="#000000" stroke-width="0.00057884">
<g id="SVGRepo_bgCarrier" stroke-width="0" transform="translate(0,0), scale(1)">
<rect x="-20.26" y="-20.26" width="98.40" height="98.40" rx="49.2" fill="#bfbfbf" strokewidth="0"/>
</g>
<g id="SVGRepo_tracerCarrier" stroke-linecap="round" stroke-linejoin="round" stroke="#f5f5f5" stroke-width="2.431128"/>
<g id="SVGRepo_iconCarrier"> <g> <path d="M45.975,37.031c-3.049,0-5.783,1.314-7.69,3.4l-16.566-7.968c0.396-1.103,0.622-2.282,0.622-3.521 c0-1.237-0.227-2.418-0.622-3.521l16.566-7.966c1.907,2.085,4.644,3.402,7.69,3.402c5.759,0,10.429-4.669,10.429-10.428 C56.404,4.669,51.734,0,45.975,0c-5.76,0-10.429,4.669-10.429,10.429c0,0.552,0.056,1.09,0.139,1.619l-17.635,8.479 c-1.724-1.26-3.842-2.012-6.141-2.012c-5.759,0-10.428,4.668-10.428,10.425c0,5.762,4.669,10.43,10.428,10.43 c2.299,0,4.417-0.752,6.14-2.014l17.634,8.481c-0.082,0.529-0.139,1.067-0.139,1.619c0,5.76,4.67,10.428,10.43,10.428 c5.759,0,10.428-4.668,10.428-10.428C56.402,41.697,51.734,37.031,45.975,37.031z"/> </g> </g>
</svg>